<svg id="Ebene_1" data-name="Ebene 1" xmlns="http://www.w3.org/2000/svg" width="16" height="16" viewBox="0 0 16 16"><defs><style>.cls-1{fill:#103a5d;}</style></defs><title>travelcosts_tariff_2</title><path class="cls-1" d="M10.41,3.19c-1.86,0-2.53.67-2.73,2.67h4.77c.2,0,.3.1.24.3l-.22.77a.35.35,0,0,1-.38.3H7.6v1h4.2c.19,0,.27.1.23.3l-.19.77a.39.39,0,0,1-.4.3H7.66c.18,2.14.83,2.89,2.75,2.89h3.17a.26.26,0,0,1,.3.29v1.93c0,.39-.18.53-.52.61a14.05,14.05,0,0,1-2.95.36c-4.59,0-6.18-1.45-6.46-6.08H1.72q-.3,0-.24-.3l.22-.77a.34.34,0,0,1,.37-.3H3.89v-1H2.37q-.3,0-.24-.3l.2-.77a.39.39,0,0,1,.4-.3H4C4.27,1.37,5.87,0,10.41,0A21.1,21.1,0,0,1,13.9.36c.33.1.61.23.49.61l-.57,1.92c-.08.2-.16.3-.36.3Z"/></svg>